<svg id="SvgjsSvg1177" width="800" height="368.3249816894531" xmlns="http://www.w3.org/2000/svg" version="1.1" xmlns:xlink="http://www.w3.org/1999/xlink" xmlns:svgjs="http://svgjs.com/svgjs"><defs id="SvgjsDefs1178"><pattern patternUnits="userSpaceOnUse" id="pattern_mark_0" width="300" height="300"><text x="150" y="100" fill="rgba(229,229,229,0.8)" font-size="18" transform="rotate(-45, 150, 150)" style="dominant-baseline: middle; text-anchor: middle;"></text></pattern><pattern patternUnits="userSpaceOnUse" id="pattern_mark_1" width="300" height="300"><text x="150" y="200" fill="rgba(229,229,229,0.8)" font-size="18" transform="rotate(-45, 150, 150)" style="dominant-baseline: middle; text-anchor: middle;"></text></pattern><marker id="SvgjsMarker1216" markerWidth="13" markerHeight="9" refX="9.5" refY="4.5" viewBox="0 0 13 9" orient="auto" markerUnits="userSpaceOnUse" stroke-dasharray="0,0"><path id="SvgjsPath1217" d="M0,0 L13,4.5 L0,9 L0,0" fill="#323232" stroke="#323232" stroke-width="1"></path></marker><marker id="SvgjsMarker1220" markerWidth="13" markerHeight="9" refX="9.5" refY="4.5" viewBox="0 0 13 9" orient="auto" markerUnits="userSpaceOnUse" stroke-dasharray="0,0"><path id="SvgjsPath1221" d="M0,0 L13,4.5 L0,9 L0,0" fill="#323232" stroke="#323232" stroke-width="1"></path></marker><marker id="SvgjsMarker1234" markerWidth="13" markerHeight="9" refX="9.5" refY="4.5" viewBox="0 0 13 9" orient="auto" markerUnits="userSpaceOnUse" stroke-dasharray="0,0"><path id="SvgjsPath1235" d="M0,0 L13,4.5 L0,9 L0,0" fill="#323232" stroke="#323232" stroke-width="1"></path></marker><marker id="SvgjsMarker1258" markerWidth="13" markerHeight="9" refX="9.5" refY="4.5" viewBox="0 0 13 9" orient="auto" markerUnits="userSpaceOnUse" stroke-dasharray="0,0"><path id="SvgjsPath1259" d="M0,0 L13,4.5 L0,9 L0,0" fill="#323232" stroke="#323232" stroke-width="1"></path></marker><marker id="SvgjsMarker1278" markerWidth="13" markerHeight="9" refX="9.5" refY="4.5" viewBox="0 0 13 9" orient="auto" markerUnits="userSpaceOnUse" stroke-dasharray="0,0"><path id="SvgjsPath1279" d="M0,0 L13,4.5 L0,9 L0,0" fill="#323232" stroke="#323232" stroke-width="1"></path></marker><marker id="SvgjsMarker1282" markerWidth="13" markerHeight="9" refX="9.5" refY="4.5" viewBox="0 0 13 9" orient="auto" markerUnits="userSpaceOnUse" stroke-dasharray="0,0"><path id="SvgjsPath1283" d="M0,0 L13,4.5 L0,9 L0,0" fill="#323232" stroke="#323232" stroke-width="1"></path></marker><marker id="SvgjsMarker1292" markerWidth="13" markerHeight="9" refX="9.5" refY="4.5" viewBox="0 0 13 9" orient="auto" markerUnits="userSpaceOnUse" stroke-dasharray="0,0"><path id="SvgjsPath1293" d="M0,0 L13,4.5 L0,9 L0,0" fill="#323232" stroke="#323232" stroke-width="1"></path></marker><marker id="SvgjsMarker1332" markerWidth="13" markerHeight="9" refX="9.5" refY="4.5" viewBox="0 0 13 9" orient="auto" markerUnits="userSpaceOnUse" stroke-dasharray="0,0"><path id="SvgjsPath1333" d="M0,0 L13,4.5 L0,9 L0,0" fill="#323232" stroke="#323232" stroke-width="1"></path></marker><marker id="SvgjsMarker1346" markerWidth="13" markerHeight="9" refX="9.5" refY="4.5" viewBox="0 0 13 9" orient="auto" markerUnits="userSpaceOnUse" stroke-dasharray="0,0"><path id="SvgjsPath1347" d="M0,0 L13,4.5 L0,9 L0,0" fill="#323232" stroke="#323232" stroke-width="1"></path></marker></defs><rect id="svgbackgroundid" width="800" height="368.3249816894531" fill="transparent"></rect><rect id="SvgjsRect1180" width="800" height="368.3249816894531" fill="url(#pattern_mark_0)"></rect><rect id="SvgjsRect1181" width="800" height="368.3249816894531" fill="url(#pattern_mark_1)"></rect><g id="SvgjsG1182" transform="translate(417,149.32499313354492)"><path id="SvgjsPath1183" d="M 0 4Q 0 0 4 0L 354 0Q 358 0 358 4L 358 190Q 358 194 354 194L 4 194Q 0 194 0 190Z" stroke="rgba(33,41,48,1)" stroke-width="1.5" fill-opacity="1" fill="#ffffff"></path><g id="SvgjsG1184"><text id="SvgjsText1185" font-family="微软雅黑" text-anchor="middle" font-size="13px" width="338px" fill="#323232" font-weight="400" align="middle" lineHeight="125%" anchor="middle" family="微软雅黑" size="13px" weight="400" font-style="" opacity="1" y="86.375" transform="rotate(0)"></text></g></g><g id="SvgjsG1186" transform="translate(366,24.99999237060547)"><path id="SvgjsPath1187" d="M 0 0L 122 0L 122 54L 0 54Z" stroke="rgba(33,41,48,1)" stroke-width="1.5" fill-opacity="1" fill="#ffffff"></path><g id="SvgjsG1188"><text id="SvgjsText1189" font-family="微软雅黑" text-anchor="middle" font-size="13px" width="102px" fill="#323232" font-weight="400" align="middle" lineHeight="125%" anchor="middle" family="微软雅黑" size="13px" weight="400" font-style="" opacity="1" y="7.875" transform="rotate(0)"><tspan id="SvgjsTspan1190" dy="16" x="61"><tspan id="SvgjsTspan1191" style="text-decoration:;">数据转化为</tspan></tspan><tspan id="SvgjsTspan1192" dy="16" x="61"><tspan id="SvgjsTspan1193" style="text-decoration:;">GimbalPackage</tspan></tspan></text></g></g><g id="SvgjsG1194" transform="translate(184,24.99999237060547)"><path id="SvgjsPath1195" d="M 0 4Q 0 0 4 0L 133 0Q 137 0 137 4L 137 50Q 137 54 133 54L 4 54Q 0 54 0 50Z" stroke="rgba(33,41,48,1)" stroke-width="1.5" fill-opacity="1" fill="#ffffff"></path><g id="SvgjsG1196"><text id="SvgjsText1197" font-family="微软雅黑" text-anchor="middle" font-size="13px" width="117px" fill="#323232" font-weight="400" align="middle" lineHeight="125%" anchor="middle" family="微软雅黑" size="13px" weight="400" font-style="" opacity="1" y="-0.125" transform="rotate(0)"><tspan id="SvgjsTspan1198" dy="16" x="68.5"><tspan id="SvgjsTspan1199" style="text-decoration:;">使用</tspan></tspan><tspan id="SvgjsTspan1200" dy="16" x="68.5"><tspan id="SvgjsTspan1201" style="text-decoration:;">setGimbalAngle</tspan></tspan><tspan id="SvgjsTspan1202" dy="16" x="68.5"><tspan id="SvgjsTspan1203" style="text-decoration:;">设置数据</tspan></tspan></text></g></g><g id="SvgjsG1204" transform="translate(35,24.99999237060547)"><path id="SvgjsPath1205" d="M 0 0L 95 0L 95 54L 0 54Z" stroke="rgba(33,41,48,1)" stroke-width="1.5" fill-opacity="1" fill="#ffffff"></path><g id="SvgjsG1206"><text id="SvgjsText1207" font-family="微软雅黑" text-anchor="middle" font-size="13px" width="75px" fill="#323232" font-weight="400" align="middle" lineHeight="125%" anchor="middle" family="微软雅黑" size="13px" weight="400" font-style="" opacity="1" y="-0.125" transform="rotate(0)"><tspan id="SvgjsTspan1208" dy="16" x="47.5"><tspan id="SvgjsTspan1209" style="text-decoration:;">yaw</tspan></tspan><tspan id="SvgjsTspan1210" dy="16" x="47.5"><tspan id="SvgjsTspan1211" style="text-decoration:;">pitch</tspan></tspan><tspan id="SvgjsTspan1212" dy="16" x="47.5"><tspan id="SvgjsTspan1213" style="text-decoration:;">数据</tspan></tspan></text></g></g><g id="SvgjsG1214"><path id="SvgjsPath1215" d="M130.75 51.99999237060547L157 51.99999237060547L157 51.99999237060547L181.3 51.99999237060547" stroke="#323232" stroke-width="1.5" fill="none" marker-end="url(#SvgjsMarker1216)"></path></g><g id="SvgjsG1218"><path id="SvgjsPath1219" d="M321.75 51.99999237060547L343.5 51.99999237060547L343.5 51.99999237060547L363.3 51.99999237060547" stroke="#323232" stroke-width="1.5" fill="none" marker-end="url(#SvgjsMarker1220)"></path></g><g id="SvgjsG1222" transform="translate(553,24.99999237060547)"><path id="SvgjsPath1223" d="M 0 4Q 0 0 4 0L 218 0Q 222 0 222 4L 222 50Q 222 54 218 54L 4 54Q 0 54 0 50Z" stroke="rgba(33,41,48,1)" stroke-width="1.5" fill-opacity="1" fill="#ffffff"></path><g id="SvgjsG1224"><text id="SvgjsText1225" font-family="微软雅黑" text-anchor="middle" font-size="13px" width="202px" fill="#323232" font-weight="400" align="middle" lineHeight="125%" anchor="middle" family="微软雅黑" size="13px" weight="400" font-style="" opacity="1" y="-0.125" transform="rotate(0)"><tspan id="SvgjsTspan1226" dy="16" x="111"><tspan id="SvgjsTspan1227" style="text-decoration:;">调用send(gimbal_package, </tspan></tspan><tspan id="SvgjsTspan1228" dy="16" x="111"><tspan id="SvgjsTspan1229" style="text-decoration:;">GIMBAL)</tspan></tspan><tspan id="SvgjsTspan1230" dy="16" x="111"><tspan id="SvgjsTspan1231" style="text-decoration:;">发送包和ID</tspan></tspan></text></g></g><g id="SvgjsG1232"><path id="SvgjsPath1233" d="M488.75 51.99999237060547L520.5 51.99999237060547L520.5 51.99999237060547L550.3 51.99999237060547" stroke="#323232" stroke-width="1.5" fill="none" marker-end="url(#SvgjsMarker1234)"></path></g><g id="SvgjsG1236" transform="translate(634,88.32499313354492)"><path id="SvgjsPath1237" d="M 19.8 0L 40.2 0L 40.2 29.7L 60 29.7L 30 54L 0 29.7L 19.8 29.7L 19.8 0Z" stroke="rgba(33,41,48,1)" stroke-width="1.5" fill-opacity="1" fill="#ffffff"></path><g id="SvgjsG1238"><text id="SvgjsText1239" font-family="微软雅黑" text-anchor="middle" font-size="13px" width="84px" fill="#323232" font-weight="400" align="middle" lineHeight="125%" anchor="middle" family="微软雅黑" size="13px" weight="400" font-style="" opacity="1" y="13.675" transform="rotate(0)"></text></g></g><g id="SvgjsG1240" transform="translate(627,175.32499313354492)"><path id="SvgjsPath1241" d="M 0 4Q 0 0 4 0L 92 0Q 96 0 96 4L 96 50Q 96 54 92 54L 4 54Q 0 54 0 50Z" stroke="rgba(33,41,48,1)" stroke-width="1.5" fill-opacity="1" fill="#ffffff"></path><g id="SvgjsG1242"><text id="SvgjsText1243" font-family="微软雅黑" text-anchor="middle" font-size="13px" width="76px" fill="#323232" font-weight="400" align="middle" lineHeight="125%" anchor="middle" family="微软雅黑" size="13px" weight="400" font-style="" opacity="1" y="-0.125" transform="rotate(0)"><tspan id="SvgjsTspan1244" dy="16" x="48"><tspan id="SvgjsTspan1245" style="text-decoration:;">调用对应包</tspan></tspan><tspan id="SvgjsTspan1246" dy="16" x="48"><tspan id="SvgjsTspan1247" style="text-decoration:;">的encode转</tspan></tspan><tspan id="SvgjsTspan1248" dy="16" x="48"><tspan id="SvgjsTspan1249" style="text-decoration:;">buffer</tspan></tspan></text></g></g><g id="SvgjsG1250" transform="translate(627,260.3249931335449)"><path id="SvgjsPath1251" d="M 0 0L 96 0L 96 54L 0 54Z" stroke="rgba(33,41,48,1)" stroke-width="1.5" fill-opacity="1" fill="#ffffff"></path><g id="SvgjsG1252"><text id="SvgjsText1253" font-family="微软雅黑" text-anchor="middle" font-size="13px" width="76px" fill="#323232" font-weight="400" align="middle" lineHeight="125%" anchor="middle" family="微软雅黑" size="13px" weight="400" font-style="" opacity="1" y="16.375" transform="rotate(0)"><tspan id="SvgjsTspan1254" dy="16" x="48"><tspan id="SvgjsTspan1255" style="text-decoration:;">buffer</tspan></tspan></text></g></g><g id="SvgjsG1256"><path id="SvgjsPath1257" d="M675 230.07499313354492L675 244.82499313354492L675 244.82499313354492L675 257.62499313354493" stroke="#323232" stroke-width="1.5" fill="none" marker-end="url(#SvgjsMarker1258)"></path></g><g id="SvgjsG1260" transform="translate(455,175.32499313354492)"><path id="SvgjsPath1261" d="M 0 4Q 0 0 4 0L 101 0Q 105 0 105 4L 105 50Q 105 54 101 54L 4 54Q 0 54 0 50Z" stroke="rgba(33,41,48,1)" stroke-width="1.5" fill-opacity="1" fill="#ffffff"></path><g id="SvgjsG1262"><text id="SvgjsText1263" font-family="微软雅黑" text-anchor="middle" font-size="13px" width="85px" fill="#323232" font-weight="400" align="middle" lineHeight="125%" anchor="middle" family="微软雅黑" size="13px" weight="400" font-style="" opacity="1" y="-0.125" transform="rotate(0)"><tspan id="SvgjsTspan1264" dy="16" x="52.5"><tspan id="SvgjsTspan1265" style="text-decoration:;">查找ID</tspan></tspan><tspan id="SvgjsTspan1266" dy="16" x="52.5"><tspan id="SvgjsTspan1267" style="text-decoration:;">对应的</tspan></tspan><tspan id="SvgjsTspan1268" dy="16" x="52.5"><tspan id="SvgjsTspan1269" style="text-decoration:;">basePackage</tspan></tspan></text></g></g><g id="SvgjsG1270" transform="translate(455.25,260.3249931335449)"><path id="SvgjsPath1271" d="M 0 0L 104.5 0L 104.5 54L 0 54Z" stroke="rgba(33,41,48,1)" stroke-width="1.5" fill-opacity="1" fill="#ffffff"></path><g id="SvgjsG1272"><text id="SvgjsText1273" font-family="微软雅黑" text-anchor="middle" font-size="13px" width="85px" fill="#323232" font-weight="400" align="middle" lineHeight="125%" anchor="middle" family="微软雅黑" size="13px" weight="400" font-style="" opacity="1" y="16.375" transform="rotate(0)"><tspan id="SvgjsTspan1274" dy="16" x="52.5"><tspan id="SvgjsTspan1275" style="text-decoration:;">basePackage</tspan></tspan></text></g></g><g id="SvgjsG1276"><path id="SvgjsPath1277" d="M507.5 230.07499313354492L507.5 244.82499313354492L507.5 244.82499313354492L507.5 257.62499313354493" stroke="#323232" stroke-width="1.5" fill="none" marker-end="url(#SvgjsMarker1278)"></path></g><g id="SvgjsG1280"><path id="SvgjsPath1281" d="M626.25 287.3249931335449L593.375 287.3249931335449L593.375 287.3249931335449L562.45 287.3249931335449" stroke="#323232" stroke-width="1.5" fill="none" marker-end="url(#SvgjsMarker1282)"></path></g><g id="SvgjsG1284" transform="translate(264,260.3249931335449)"><path id="SvgjsPath1285" d="M 0 4Q 0 0 4 0L 92 0Q 96 0 96 4L 96 50Q 96 54 92 54L 4 54Q 0 54 0 50Z" stroke="rgba(33,41,48,1)" stroke-width="1.5" fill-opacity="1" fill="#ffffff"></path><g id="SvgjsG1286"><text id="SvgjsText1287" font-family="微软雅黑" text-anchor="middle" font-size="13px" width="76px" fill="#323232" font-weight="400" align="middle" lineHeight="125%" anchor="middle" family="微软雅黑" size="13px" weight="400" font-style="" opacity="1" y="16.375" transform="rotate(0)"><tspan id="SvgjsTspan1288" dy="16" x="48"><tspan id="SvgjsTspan1289" style="text-decoration:;">sendBuffer</tspan></tspan></text></g></g><g id="SvgjsG1290"><path id="SvgjsPath1291" d="M454.5 287.3249931335449L407.625 287.3249931335449L407.625 287.3249931335449L362.7 287.3249931335449" stroke="#323232" stroke-width="1.5" fill="none" marker-end="url(#SvgjsMarker1292)"></path></g><g id="SvgjsG1294" transform="translate(25,142.32499313354492)"><path id="SvgjsPath1295" d="M 0 4Q 0 0 4 0L 190 0Q 194 0 194 4L 194 197Q 194 201 190 201L 4 201Q 0 201 0 197Z" stroke="rgba(33,41,48,1)" stroke-width="1.5" fill-opacity="1" fill="#ffffff"></path><g id="SvgjsG1296"><text id="SvgjsText1297" font-family="微软雅黑" text-anchor="middle" font-size="13px" width="174px" fill="#323232" font-weight="400" align="middle" lineHeight="125%" anchor="middle" family="微软雅黑" size="13px" weight="400" font-style="" opacity="1" y="0.375" transform="rotate(0)"><tspan id="SvgjsTspan1298" dy="16" x="97"><tspan id="SvgjsTspan1299" style="text-decoration:;">port</tspan></tspan><tspan id="SvgjsTspan1300" dy="16" x="97"><tspan id="SvgjsTspan1301" style="text-decoration:;"> </tspan></tspan><tspan id="SvgjsTspan1302" dy="16" x="97"><tspan id="SvgjsTspan1303" style="text-decoration:;"> </tspan></tspan><tspan id="SvgjsTspan1304" dy="16" x="97"><tspan id="SvgjsTspan1305" style="text-decoration:;"> </tspan></tspan><tspan id="SvgjsTspan1306" dy="16" x="97"><tspan id="SvgjsTspan1307" style="text-decoration:;"> </tspan></tspan><tspan id="SvgjsTspan1308" dy="16" x="97"><tspan id="SvgjsTspan1309" style="text-decoration:;"> </tspan></tspan><tspan id="SvgjsTspan1310" dy="16" x="97"><tspan id="SvgjsTspan1311" style="text-decoration:;"> </tspan></tspan><tspan id="SvgjsTspan1312" dy="16" x="97"><tspan id="SvgjsTspan1313" style="text-decoration:;"> </tspan></tspan><tspan id="SvgjsTspan1314" dy="16" x="97"><tspan id="SvgjsTspan1315" style="text-decoration:;"> </tspan></tspan><tspan id="SvgjsTspan1316" dy="16" x="97"><tspan id="SvgjsTspan1317" style="text-decoration:;"> </tspan></tspan><tspan id="SvgjsTspan1318" dy="16" x="97"><tspan id="SvgjsTspan1319" style="text-decoration:;"> </tspan></tspan><tspan id="SvgjsTspan1320" dy="16" x="97"><tspan id="SvgjsTspan1321" style="text-decoration:;"> </tspan></tspan></text></g></g><g id="SvgjsG1322" transform="translate(73,260.3249931335449)"><path id="SvgjsPath1323" d="M 0 0L 96 0L 96 54L 0 54Z" stroke="rgba(33,41,48,1)" stroke-width="1.5" fill-opacity="1" fill="#ffffff"></path><g id="SvgjsG1324"><text id="SvgjsText1325" font-family="微软雅黑" text-anchor="middle" font-size="13px" width="76px" fill="#323232" font-weight="400" align="middle" lineHeight="125%" anchor="middle" family="微软雅黑" size="13px" weight="400" font-style="" opacity="1" y="7.875" transform="rotate(0)"><tspan id="SvgjsTspan1326" dy="16" x="48"><tspan id="SvgjsTspan1327" style="text-decoration:;">将buffer写</tspan></tspan><tspan id="SvgjsTspan1328" dy="16" x="48"><tspan id="SvgjsTspan1329" style="text-decoration:;">入发送队列</tspan></tspan></text></g></g><g id="SvgjsG1330"><path id="SvgjsPath1331" d="M263.25 287.3249931335449L216.5 287.3249931335449L216.5 287.3249931335449L171.7 287.3249931335449" stroke="#323232" stroke-width="1.5" fill="none" marker-end="url(#SvgjsMarker1332)"></path></g><g id="SvgjsG1334" transform="translate(73,175.32499313354492)"><path id="SvgjsPath1335" d="M 0 4Q 0 0 4 0L 92 0Q 96 0 96 4L 96 50Q 96 54 92 54L 4 54Q 0 54 0 50Z" stroke="rgba(33,41,48,1)" stroke-width="1.5" fill-opacity="1" fill="#ffffff"></path><g id="SvgjsG1336"><text id="SvgjsText1337" font-family="微软雅黑" text-anchor="middle" font-size="13px" width="76px" fill="#323232" font-weight="400" align="middle" lineHeight="125%" anchor="middle" family="微软雅黑" size="13px" weight="400" font-style="" opacity="1" y="-0.125" transform="rotate(0)"><tspan id="SvgjsTspan1338" dy="16" x="48"><tspan id="SvgjsTspan1339" style="text-decoration:;">发送线程将</tspan></tspan><tspan id="SvgjsTspan1340" dy="16" x="48"><tspan id="SvgjsTspan1341" style="text-decoration:;">buffer发送</tspan></tspan><tspan id="SvgjsTspan1342" dy="16" x="48"><tspan id="SvgjsTspan1343" style="text-decoration:;">出去</tspan></tspan></text></g></g><g id="SvgjsG1344"><path id="SvgjsPath1345" d="M121 259.5749931335449L121 244.82499313354492L121 244.82499313354492L121 232.0249931335449" stroke="#323232" stroke-width="1.5" fill="none" marker-end="url(#SvgjsMarker1346)"></path></g></svg>