<svg id="SvgjsSvg1625" width="928.2500457763672" height="357.01560974121094" xmlns="http://www.w3.org/2000/svg" version="1.1" xmlns:xlink="http://www.w3.org/1999/xlink" xmlns:svgjs="http://svgjs.com/svgjs"><defs id="SvgjsDefs1626"><pattern patternUnits="userSpaceOnUse" id="pattern_mark_0" width="300" height="300"><text x="150" y="100" fill="rgba(229,229,229,0.8)" font-size="18" transform="rotate(-45, 150, 150)" style="dominant-baseline: middle; text-anchor: middle;"></text></pattern><pattern patternUnits="userSpaceOnUse" id="pattern_mark_1" width="300" height="300"><text x="150" y="200" fill="rgba(229,229,229,0.8)" font-size="18" transform="rotate(-45, 150, 150)" style="dominant-baseline: middle; text-anchor: middle;"></text></pattern><marker id="SvgjsMarker1656" markerWidth="13" markerHeight="9" refX="9.5" refY="4.5" viewBox="0 0 13 9" orient="auto" markerUnits="userSpaceOnUse" stroke-dasharray="0,0"><path id="SvgjsPath1657" d="M0,0 L13,4.5 L0,9 L0,0" fill="#323232" stroke="#323232" stroke-width="1"></path></marker><marker id="SvgjsMarker1660" markerWidth="13" markerHeight="9" refX="9.5" refY="4.5" viewBox="0 0 13 9" orient="auto" markerUnits="userSpaceOnUse" stroke-dasharray="0,0"><path id="SvgjsPath1661" d="M0,0 L13,4.5 L0,9 L0,0" fill="#323232" stroke="#323232" stroke-width="1"></path></marker><marker id="SvgjsMarker1688" markerWidth="13" markerHeight="9" refX="9.5" refY="4.5" viewBox="0 0 13 9" orient="auto" markerUnits="userSpaceOnUse" stroke-dasharray="0,0"><path id="SvgjsPath1689" d="M0,0 L13,4.5 L0,9 L0,0" fill="#323232" stroke="#323232" stroke-width="1"></path></marker><marker id="SvgjsMarker1702" markerWidth="13" markerHeight="9" refX="9.5" refY="4.5" viewBox="0 0 13 9" orient="auto" markerUnits="userSpaceOnUse" stroke-dasharray="0,0"><path id="SvgjsPath1703" d="M0,0 L13,4.5 L0,9 L0,0" fill="#323232" stroke="#323232" stroke-width="1"></path></marker><marker id="SvgjsMarker1712" markerWidth="13" markerHeight="9" refX="9.5" refY="4.5" viewBox="0 0 13 9" orient="auto" markerUnits="userSpaceOnUse" stroke-dasharray="0,0"><path id="SvgjsPath1713" d="M0,0 L13,4.5 L0,9 L0,0" fill="#323232" stroke="#323232" stroke-width="1"></path></marker><marker id="SvgjsMarker1722" markerWidth="13" markerHeight="9" refX="9.5" refY="4.5" viewBox="0 0 13 9" orient="auto" markerUnits="userSpaceOnUse" stroke-dasharray="0,0"><path id="SvgjsPath1723" d="M0,0 L13,4.5 L0,9 L0,0" fill="#323232" stroke="#323232" stroke-width="1"></path></marker></defs><rect id="svgbackgroundid" width="928.2500457763672" height="357.01560974121094" fill="transparent"></rect><rect id="SvgjsRect1628" width="928.2500457763672" height="357.01560974121094" fill="url(#pattern_mark_0)"></rect><rect id="SvgjsRect1629" width="928.2500457763672" height="357.01560974121094" fill="url(#pattern_mark_1)"></rect><g id="SvgjsG1630" transform="translate(25.009368896484375,71.76559495925903)"><path id="SvgjsPath1631" d="M 0 4Q 0 0 4 0L 211 0Q 215 0 215 4L 215 216Q 215 220 211 220L 4 220Q 0 220 0 216Z" stroke="rgba(33,41,48,1)" stroke-width="1.5" fill-opacity="1" fill="#ffffff"></path><g id="SvgjsG1632"><text id="SvgjsText1633" font-family="微软雅黑" text-anchor="middle" font-size="13px" width="195px" fill="#323232" font-weight="400" align="middle" lineHeight="125%" anchor="middle" family="微软雅黑" size="13px" weight="400" font-style="" opacity="1" y="99.375" transform="rotate(0)"></text></g></g><g id="SvgjsG1634" transform="translate(281.0093688964844,196.76559495925903)"><path id="SvgjsPath1635" d="M 0 0L 113 0L 113 54L 0 54Z" stroke="rgba(33,41,48,1)" stroke-width="1.5" fill-opacity="1" fill="#ffffff"></path><g id="SvgjsG1636"><text id="SvgjsText1637" font-family="微软雅黑" text-anchor="middle" font-size="13px" width="93px" fill="#323232" font-weight="400" align="middle" lineHeight="125%" anchor="middle" family="微软雅黑" size="13px" weight="400" font-style="" opacity="1" y="16.375" transform="rotate(0)"><tspan id="SvgjsTspan1638" dy="16" x="56.5"><tspan id="SvgjsTspan1639" style="text-decoration:;">basePackage</tspan></tspan></text></g></g><g id="SvgjsG1640" transform="translate(71.50936889648438,100.76559495925903)"><path id="SvgjsPath1641" d="M 0 4Q 0 0 4 0L 105.5 0Q 109.5 0 109.5 4L 109.5 50Q 109.5 54 105.5 54L 4 54Q 0 54 0 50Z" stroke="rgba(33,41,48,1)" stroke-width="1.5" fill-opacity="1" fill="#ffffff"></path><g id="SvgjsG1642"><text id="SvgjsText1643" font-family="微软雅黑" text-anchor="middle" font-size="13px" width="90px" fill="#323232" font-weight="400" align="middle" lineHeight="125%" anchor="middle" family="微软雅黑" size="13px" weight="400" font-style="" opacity="1" y="7.875" transform="rotate(0)"><tspan id="SvgjsTspan1644" dy="16" x="55"><tspan id="SvgjsTspan1645" style="text-decoration:;">收包线程收到</tspan></tspan><tspan id="SvgjsTspan1646" dy="16" x="55"><tspan id="SvgjsTspan1647" style="text-decoration:;">一个buffer</tspan></tspan></text></g></g><g id="SvgjsG1648" transform="translate(78.25936889648438,196.76559495925903)"><path id="SvgjsPath1649" d="M 0 0L 96 0L 96 54L 0 54Z" stroke="rgba(33,41,48,1)" stroke-width="1.5" fill-opacity="1" fill="#ffffff"></path><g id="SvgjsG1650"><text id="SvgjsText1651" font-family="微软雅黑" text-anchor="middle" font-size="13px" width="76px" fill="#323232" font-weight="400" align="middle" lineHeight="125%" anchor="middle" family="微软雅黑" size="13px" weight="400" font-style="" opacity="1" y="16.375" transform="rotate(0)"><tspan id="SvgjsTspan1652" dy="16" x="48"><tspan id="SvgjsTspan1653" style="text-decoration:;">buffer</tspan></tspan></text></g></g><g id="SvgjsG1654"><path id="SvgjsPath1655" d="M126.25936889648438 155.51559495925903L126.25936889648438 175.76559495925903L126.25936889648438 175.76559495925903L126.25936889648438 194.065594959259" stroke="#323232" stroke-width="1.5" fill="none" marker-end="url(#SvgjsMarker1656)"></path></g><g id="SvgjsG1658"><path id="SvgjsPath1659" d="M175.00936889648438 223.76559495925903L227.63436889648438 223.76559495925903L227.63436889648438 223.76559495925903L278.3093688964844 223.76559495925903" stroke="#323232" stroke-width="1.5" fill="none" marker-end="url(#SvgjsMarker1660)"></path></g><g id="SvgjsG1662" transform="translate(531.2593688964844,25.003113269805908)"><path id="SvgjsPath1663" d="M 0 4Q 0 0 4 0L 175.5 0Q 179.5 0 179.5 4L 179.5 50Q 179.5 54 175.5 54L 4 54Q 0 54 0 50Z" stroke="rgba(33,41,48,1)" stroke-width="1.5" fill-opacity="1" fill="#ffffff"></path><g id="SvgjsG1664"><text id="SvgjsText1665" font-family="微软雅黑" text-anchor="middle" font-size="13px" width="160px" fill="#323232" font-weight="400" align="middle" lineHeight="125%" anchor="middle" family="微软雅黑" size="13px" weight="400" font-style="" opacity="1" y="7.875" transform="rotate(0)"><tspan id="SvgjsTspan1666" dy="16" x="90"><tspan id="SvgjsTspan1667" style="text-decoration:;">recv函数</tspan></tspan><tspan id="SvgjsTspan1668" dy="16" x="90"><tspan id="SvgjsTspan1669" style="text-decoration:;">recv&lt;packageType&gt;(ID)</tspan></tspan></text></g></g><g id="SvgjsG1670" transform="translate(484.0093688964844,135.76559495925903)"><path id="SvgjsPath1671" d="M 0 4Q 0 0 4 0L 283 0Q 287 0 287 4L 287 192Q 287 196 283 196L 4 196Q 0 196 0 192Z" stroke="rgba(33,41,48,1)" stroke-width="1.5" fill-opacity="1" fill="#ffffff"></path><g id="SvgjsG1672"><text id="SvgjsText1673" font-family="微软雅黑" text-anchor="middle" font-size="13px" width="267px" fill="#323232" font-weight="400" align="middle" lineHeight="125%" anchor="middle" family="微软雅黑" size="13px" weight="400" font-style="" opacity="1" y="87.375" transform="rotate(0)"></text></g></g><g id="SvgjsG1674" transform="translate(592.0093688964844,82.76559495925903)"><path id="SvgjsPath1675" d="M 19.8 0L 40.2 0L 40.2 29.15L 60 29.15L 30 53L 0 29.15L 19.8 29.15L 19.8 0Z" stroke="rgba(33,41,48,1)" stroke-width="1.5" fill-opacity="1" fill="#ffffff"></path><g id="SvgjsG1676"><text id="SvgjsText1677" font-family="微软雅黑" text-anchor="middle" font-size="13px" width="84px" fill="#323232" font-weight="400" align="middle" lineHeight="125%" anchor="middle" family="微软雅黑" size="13px" weight="400" font-style="" opacity="1" y="13.225000000000001" transform="rotate(0)"></text></g></g><g id="SvgjsG1678" transform="translate(500.7593688964844,146.76559495925903)"><path id="SvgjsPath1679" d="M 0 4Q 0 0 4 0L 109 0Q 113 0 113 4L 113 50Q 113 54 109 54L 4 54Q 0 54 0 50Z" stroke="rgba(33,41,48,1)" stroke-width="1.5" fill-opacity="1" fill="#ffffff"></path><g id="SvgjsG1680"><text id="SvgjsText1681" font-family="微软雅黑" text-anchor="middle" font-size="13px" width="93px" fill="#323232" font-weight="400" align="middle" lineHeight="125%" anchor="middle" family="微软雅黑" size="13px" weight="400" font-style="" opacity="1" y="7.875" transform="rotate(0)"><tspan id="SvgjsTspan1682" dy="16" x="56.5"><tspan id="SvgjsTspan1683" style="text-decoration:;">根据ID找到对应</tspan></tspan><tspan id="SvgjsTspan1684" dy="16" x="56.5"><tspan id="SvgjsTspan1685" style="text-decoration:;">的basePackage</tspan></tspan></text></g></g><g id="SvgjsG1686"><path id="SvgjsPath1687" d="M557.2593688964844 201.51559495925903L557.2593688964844 222.76559495925903L396.70936889648436 222.76559495925903" stroke="#323232" stroke-width="1.5" fill="none" marker-end="url(#SvgjsMarker1688)"></path></g><g id="SvgjsG1690" transform="translate(502.7593688964844,255.76559495925903)"><path id="SvgjsPath1691" d="M 0 4Q 0 0 4 0L 92 0Q 96 0 96 4L 96 50Q 96 54 92 54L 4 54Q 0 54 0 50Z" stroke="rgba(33,41,48,1)" stroke-width="1.5" fill-opacity="1" fill="#ffffff"></path><g id="SvgjsG1692"><text id="SvgjsText1693" font-family="微软雅黑" text-anchor="middle" font-size="13px" width="76px" fill="#323232" font-weight="400" align="middle" lineHeight="125%" anchor="middle" family="微软雅黑" size="13px" weight="400" font-style="" opacity="1" y="-0.125" transform="rotate(0)"><tspan id="SvgjsTspan1694" dy="16" x="48"><tspan id="SvgjsTspan1695" style="text-decoration:;">调用模板对</tspan></tspan><tspan id="SvgjsTspan1696" dy="16" x="48"><tspan id="SvgjsTspan1697" style="text-decoration:;">应包的</tspan></tspan><tspan id="SvgjsTspan1698" dy="16" x="48"><tspan id="SvgjsTspan1699" style="text-decoration:;">decode</tspan></tspan></text></g></g><g id="SvgjsG1700"><path id="SvgjsPath1701" d="M337.5093688964844 251.51559495925903L337.5093688964844 282.76559495925903L500.05936889648433 282.76559495925903" stroke="#323232" stroke-width="1.5" fill="none" marker-end="url(#SvgjsMarker1702)"></path></g><g id="SvgjsG1704" transform="translate(652.0093688964844,206.76559495925903)"><path id="SvgjsPath1705" d="M 0 0L 96 0L 96 54L 0 54Z" stroke="rgba(33,41,48,1)" stroke-width="1.5" fill-opacity="1" fill="#ffffff"></path><g id="SvgjsG1706"><text id="SvgjsText1707" font-family="微软雅黑" text-anchor="middle" font-size="13px" width="76px" fill="#323232" font-weight="400" align="middle" lineHeight="125%" anchor="middle" family="微软雅黑" size="13px" weight="400" font-style="" opacity="1" y="16.375" transform="rotate(0)"><tspan id="SvgjsTspan1708" dy="16" x="48"><tspan id="SvgjsTspan1709" style="text-decoration:;">package</tspan></tspan></text></g></g><g id="SvgjsG1710"><path id="SvgjsPath1711" d="M599.5093688964844 282.76559495925903L700.0093688964844 282.76559495925903L700.0093688964844 263.4655949592591" stroke="#323232" stroke-width="1.5" fill="none" marker-end="url(#SvgjsMarker1712)"></path></g><g id="SvgjsG1714" transform="translate(807.0093688964844,206.76559495925903)"><path id="SvgjsPath1715" d="M 0 0L 96 0L 96 54L 0 54Z" stroke="rgba(33,41,48,1)" stroke-width="1.5" fill-opacity="1" fill="#ffffff"></path><g id="SvgjsG1716"><text id="SvgjsText1717" font-family="微软雅黑" text-anchor="middle" font-size="13px" width="76px" fill="#323232" font-weight="400" align="middle" lineHeight="125%" anchor="middle" family="微软雅黑" size="13px" weight="400" font-style="" opacity="1" y="16.375" transform="rotate(0)"><tspan id="SvgjsTspan1718" dy="16" x="48"><tspan id="SvgjsTspan1719" style="text-decoration:;">返回</tspan></tspan></text></g></g><g id="SvgjsG1720"><path id="SvgjsPath1721" d="M748.7593688964844 233.76559495925903L777.5093688964844 233.76559495925903L777.5093688964844 233.76559495925903L804.3093688964843 233.76559495925903" stroke="#323232" stroke-width="1.5" fill="none" marker-end="url(#SvgjsMarker1722)"></path></g></svg>