<svg id="SvgjsSvg1137" width="663.6000061035156" height="430.79998779296875" xmlns="http://www.w3.org/2000/svg" version="1.1" xmlns:xlink="http://www.w3.org/1999/xlink" xmlns:svgjs="http://svgjs.com/svgjs"><defs id="SvgjsDefs1138"><pattern patternUnits="userSpaceOnUse" id="pattern_mark_0" width="300" height="300"><text x="150" y="100" fill="rgba(229,229,229,0.8)" font-size="18" transform="rotate(-45, 150, 150)" style="dominant-baseline: middle; text-anchor: middle;"></text></pattern><pattern patternUnits="userSpaceOnUse" id="pattern_mark_1" width="300" height="300"><text x="150" y="200" fill="rgba(229,229,229,0.8)" font-size="18" transform="rotate(-45, 150, 150)" style="dominant-baseline: middle; text-anchor: middle;"></text></pattern><marker id="SvgjsMarker1198" markerWidth="13" markerHeight="9" refX="9.5" refY="4.5" viewBox="0 0 13 9" orient="auto" markerUnits="userSpaceOnUse" stroke-dasharray="0,0"><path id="SvgjsPath1199" d="M0,0 L13,4.5 L0,9 L0,0" fill="#323232" stroke="#323232" stroke-width="1"></path></marker><marker id="SvgjsMarker1202" markerWidth="13" markerHeight="9" refX="9.5" refY="4.5" viewBox="0 0 13 9" orient="auto" markerUnits="userSpaceOnUse" stroke-dasharray="0,0"><path id="SvgjsPath1203" d="M0,0 L13,4.5 L0,9 L0,0" fill="#323232" stroke="#323232" stroke-width="1"></path></marker><marker id="SvgjsMarker1206" markerWidth="13" markerHeight="9" refX="9.5" refY="4.5" viewBox="0 0 13 9" orient="auto" markerUnits="userSpaceOnUse" stroke-dasharray="0,0"><path id="SvgjsPath1207" d="M0,0 L13,4.5 L0,9 L0,0" fill="#323232" stroke="#323232" stroke-width="1"></path></marker><marker id="SvgjsMarker1210" markerWidth="13" markerHeight="9" refX="9.5" refY="4.5" viewBox="0 0 13 9" orient="auto" markerUnits="userSpaceOnUse" stroke-dasharray="0,0"><path id="SvgjsPath1211" d="M0,0 L13,4.5 L0,9 L0,0" fill="#323232" stroke="#323232" stroke-width="1"></path></marker><marker id="SvgjsMarker1214" markerWidth="13" markerHeight="9" refX="9.5" refY="4.5" viewBox="0 0 13 9" orient="auto" markerUnits="userSpaceOnUse" stroke-dasharray="0,0"><path id="SvgjsPath1215" d="M0,0 L13,4.5 L0,9 L0,0" fill="#323232" stroke="#323232" stroke-width="1"></path></marker><marker id="SvgjsMarker1218" markerWidth="13" markerHeight="9" refX="9.5" refY="4.5" viewBox="0 0 13 9" orient="auto" markerUnits="userSpaceOnUse" stroke-dasharray="0,0"><path id="SvgjsPath1219" d="M0,0 L13,4.5 L0,9 L0,0" fill="#323232" stroke="#323232" stroke-width="1"></path></marker><marker id="SvgjsMarker1222" markerWidth="13" markerHeight="9" refX="9.5" refY="4.5" viewBox="0 0 13 9" orient="auto" markerUnits="userSpaceOnUse" stroke-dasharray="0,0"><path id="SvgjsPath1223" d="M0,0 L13,4.5 L0,9 L0,0" fill="#323232" stroke="#323232" stroke-width="1"></path></marker><marker id="SvgjsMarker1226" markerWidth="13" markerHeight="9" refX="9.5" refY="4.5" viewBox="0 0 13 9" orient="auto" markerUnits="userSpaceOnUse" stroke-dasharray="0,0"><path id="SvgjsPath1227" d="M0,0 L13,4.5 L0,9 L0,0" fill="#323232" stroke="#323232" stroke-width="1"></path></marker><marker id="SvgjsMarker1230" markerWidth="13" markerHeight="9" refX="9.5" refY="4.5" viewBox="0 0 13 9" orient="auto" markerUnits="userSpaceOnUse" stroke-dasharray="0,0"><path id="SvgjsPath1231" d="M0,0 L13,4.5 L0,9 L0,0" fill="#323232" stroke="#323232" stroke-width="1"></path></marker><marker id="SvgjsMarker1234" markerWidth="13" markerHeight="9" refX="9.5" refY="4.5" viewBox="0 0 13 9" orient="auto" markerUnits="userSpaceOnUse" stroke-dasharray="0,0"><path id="SvgjsPath1235" d="M0,0 L13,4.5 L0,9 L0,0" fill="#323232" stroke="#323232" stroke-width="1"></path></marker><marker id="SvgjsMarker1244" markerWidth="13" markerHeight="9" refX="9.5" refY="4.5" viewBox="0 0 13 9" orient="auto" markerUnits="userSpaceOnUse" stroke-dasharray="0,0"><path id="SvgjsPath1245" d="M0,0 L13,4.5 L0,9 L0,0" fill="#323232" stroke="#323232" stroke-width="1"></path></marker><marker id="SvgjsMarker1248" markerWidth="13" markerHeight="9" refX="9.5" refY="4.5" viewBox="0 0 13 9" orient="auto" markerUnits="userSpaceOnUse" stroke-dasharray="0,0"><path id="SvgjsPath1249" d="M0,0 L13,4.5 L0,9 L0,0" fill="#323232" stroke="#323232" stroke-width="1"></path></marker></defs><rect id="svgbackgroundid" width="663.6000061035156" height="430.79998779296875" fill="transparent"></rect><rect id="SvgjsRect1140" width="663.6000061035156" height="430.79998779296875" fill="url(#pattern_mark_0)"></rect><rect id="SvgjsRect1141" width="663.6000061035156" height="430.79998779296875" fill="url(#pattern_mark_1)"></rect><g id="SvgjsG1142" transform="translate(167,173.4000015258789)"><path id="SvgjsPath1143" d="M 0 4Q 0 0 4 0L 210.39999389648438 0Q 214.39999389648438 0 214.39999389648438 4L 214.39999389648438 46Q 214.39999389648438 50 210.39999389648438 50L 4 50Q 0 50 0 46Z" stroke="rgba(33,41,48,1)" stroke-width="1.5" fill-opacity="1" fill="#95da69"></path><g id="SvgjsG1144"><text id="SvgjsText1145" font-family="微软雅黑" text-anchor="middle" font-size="13px" width="195px" fill="#323232" font-weight="400" align="middle" lineHeight="125%" anchor="middle" family="微软雅黑" size="13px" weight="400" font-style="" opacity="1" y="14.375" transform="rotate(0)"><tspan id="SvgjsTspan1146" dy="16" x="107.5"><tspan id="SvgjsTspan1147" style="text-decoration:;">Package Manager</tspan></tspan></text></g></g><g id="SvgjsG1148" transform="translate(423.3999938964844,171.4000015258789)"><path id="SvgjsPath1149" d="M 0 4Q 0 0 4 0L 211.1999969482422 0Q 215.1999969482422 0 215.1999969482422 4L 215.1999969482422 50Q 215.1999969482422 54 211.1999969482422 54L 4 54Q 0 54 0 50Z" stroke="rgba(33,41,48,1)" stroke-width="1.5" fill-opacity="1" fill="#95da69"></path><g id="SvgjsG1150"><text id="SvgjsText1151" font-family="微软雅黑" text-anchor="middle" font-size="13px" width="196px" fill="#323232" font-weight="400" align="middle" lineHeight="125%" anchor="middle" family="微软雅黑" size="13px" weight="400" font-style="" opacity="1" y="16.375" transform="rotate(0)"><tspan id="SvgjsTspan1152" dy="16" x="108"><tspan id="SvgjsTspan1153" style="text-decoration:;">Port Manager</tspan></tspan></text></g></g><g id="SvgjsG1154" transform="translate(167,351.8000030517578)"><path id="SvgjsPath1155" d="M 0 4Q 0 0 4 0L 92 0Q 96 0 96 4L 96 50Q 96 54 92 54L 4 54Q 0 54 0 50Z" stroke="rgba(33,41,48,1)" stroke-width="1.5" fill-opacity="1" fill="#d2d6f9"></path><g id="SvgjsG1156"><text id="SvgjsText1157" font-family="微软雅黑" text-anchor="middle" font-size="13px" width="76px" fill="#323232" font-weight="400" align="middle" lineHeight="125%" anchor="middle" family="微软雅黑" size="13px" weight="400" font-style="" opacity="1" y="16.375" transform="rotate(0)"><tspan id="SvgjsTspan1158" dy="16" x="48"><tspan id="SvgjsTspan1159" style="text-decoration:;">Port1</tspan></tspan></text></g></g><g id="SvgjsG1160" transform="translate(292.1999969482422,351.8000030517578)"><path id="SvgjsPath1161" d="M 0 4Q 0 0 4 0L 92 0Q 96 0 96 4L 96 50Q 96 54 92 54L 4 54Q 0 54 0 50Z" stroke="rgba(33,41,48,1)" stroke-width="1.5" fill-opacity="1" fill="#d2d6f9"></path><g id="SvgjsG1162"><text id="SvgjsText1163" font-family="微软雅黑" text-anchor="middle" font-size="13px" width="76px" fill="#323232" font-weight="400" align="middle" lineHeight="125%" anchor="middle" family="微软雅黑" size="13px" weight="400" font-style="" opacity="1" y="16.375" transform="rotate(0)"><tspan id="SvgjsTspan1164" dy="16" x="48"><tspan id="SvgjsTspan1165" style="text-decoration:;">Port2</tspan></tspan></text></g></g><g id="SvgjsG1166" transform="translate(417.3999938964844,351.8000030517578)"><path id="SvgjsPath1167" d="M 0 4Q 0 0 4 0L 92 0Q 96 0 96 4L 96 50Q 96 54 92 54L 4 54Q 0 54 0 50Z" stroke="rgba(33,41,48,1)" stroke-width="1.5" fill-opacity="1" fill="#d2d6f9"></path><g id="SvgjsG1168"><text id="SvgjsText1169" font-family="微软雅黑" text-anchor="middle" font-size="13px" width="76px" fill="#323232" font-weight="400" align="middle" lineHeight="125%" anchor="middle" family="微软雅黑" size="13px" weight="400" font-style="" opacity="1" y="16.375" transform="rotate(0)"><tspan id="SvgjsTspan1170" dy="16" x="48"><tspan id="SvgjsTspan1171" style="text-decoration:;">Port3</tspan></tspan></text></g></g><g id="SvgjsG1172" transform="translate(167,25)"><path id="SvgjsPath1173" d="M 0 4Q 0 0 4 0L 210.39999389648438 0Q 214.39999389648438 0 214.39999389648438 4L 214.39999389648438 50Q 214.39999389648438 54 210.39999389648438 54L 4 54Q 0 54 0 50Z" stroke="rgba(33,41,48,1)" stroke-width="1.5" fill-opacity="1" fill="#f1e4a2"></path><g id="SvgjsG1174"><text id="SvgjsText1175" font-family="微软雅黑" text-anchor="middle" font-size="13px" width="195px" fill="#323232" font-weight="400" align="middle" lineHeight="125%" anchor="middle" family="微软雅黑" size="13px" weight="400" font-style="" opacity="1" y="16.375" transform="rotate(0)"><tspan id="SvgjsTspan1176" dy="16" x="107.5"><tspan id="SvgjsTspan1177" style="text-decoration:;">external interface</tspan></tspan></text></g></g><g id="SvgjsG1178" transform="translate(423.3999938964844,25)"><path id="SvgjsPath1179" d="M 0 4Q 0 0 4 0L 211.1999969482422 0Q 215.1999969482422 0 215.1999969482422 4L 215.1999969482422 50Q 215.1999969482422 54 211.1999969482422 54L 4 54Q 0 54 0 50Z" stroke="rgba(33,41,48,1)" stroke-width="1.5" fill-opacity="1" fill="#f1e4a2"></path><g id="SvgjsG1180"><text id="SvgjsText1181" font-family="微软雅黑" text-anchor="middle" font-size="13px" width="196px" fill="#323232" font-weight="400" align="middle" lineHeight="125%" anchor="middle" family="微软雅黑" size="13px" weight="400" font-style="" opacity="1" y="16.375" transform="rotate(0)"><tspan id="SvgjsTspan1182" dy="16" x="108"><tspan id="SvgjsTspan1183" style="text-decoration:;">Port schedular</tspan></tspan></text></g></g><g id="SvgjsG1184" transform="translate(542.5999908447266,351.8000030517578)"><path id="SvgjsPath1185" d="M 0 4Q 0 0 4 0L 92 0Q 96 0 96 4L 96 50Q 96 54 92 54L 4 54Q 0 54 0 50Z" stroke="rgba(33,41,48,1)" stroke-width="1.5" fill-opacity="1" fill="#d2d6f9"></path><g id="SvgjsG1186"><text id="SvgjsText1187" font-family="微软雅黑" text-anchor="middle" font-size="13px" width="76px" fill="#323232" font-weight="400" align="middle" lineHeight="125%" anchor="middle" family="微软雅黑" size="13px" weight="400" font-style="" opacity="1" y="16.375" transform="rotate(0)"><tspan id="SvgjsTspan1188" dy="16" x="48"><tspan id="SvgjsTspan1189" style="text-decoration:;">Port4</tspan></tspan></text></g></g><g id="SvgjsG1190" transform="translate(226.1999969482422,244.8000030517578)"><path id="SvgjsPath1191" d="M 0 0L 96 0L 96 54L 0 54Z" stroke="rgba(33,41,48,1)" stroke-width="1.5" fill-opacity="1" fill="#b7eaeb"></path><g id="SvgjsG1192"><text id="SvgjsText1193" font-family="微软雅黑" text-anchor="middle" font-size="13px" width="76px" fill="#323232" font-weight="400" align="middle" lineHeight="125%" anchor="middle" family="微软雅黑" size="13px" weight="400" font-style="" opacity="1" y="16.375" transform="rotate(0)"><tspan id="SvgjsTspan1194" dy="16" x="48"><tspan id="SvgjsTspan1195" style="text-decoration:;">Buffers</tspan></tspan></text></g></g><g id="SvgjsG1196"><path id="SvgjsPath1197" d="M215.55878282969962 351.29974137100174L272.1883787613235 300.6009451024796" stroke="#323232" stroke-width="1.5" fill="none" marker-end="url(#SvgjsMarker1198)"></path></g><g id="SvgjsG1200"><path id="SvgjsPath1201" d="M339.6152107669087 351.33040202735367L276.30522720104267 300.49056673961275" stroke="#323232" stroke-width="1.5" fill="none" marker-end="url(#SvgjsMarker1202)"></path></g><g id="SvgjsG1204"><path id="SvgjsPath1205" d="M464.6772472592313 351.5996600999492L276.8018848423532 299.5212376782689" stroke="#323232" stroke-width="1.5" fill="none" marker-end="url(#SvgjsMarker1206)"></path></g><g id="SvgjsG1208"><path id="SvgjsPath1209" d="M589.8602967469068 351.67609727444835L276.8628957003932 299.2460638500718" stroke="#323232" stroke-width="1.5" fill="none" marker-end="url(#SvgjsMarker1210)"></path></g><g id="SvgjsG1212"><path id="SvgjsPath1213" d="M274.1999969482422 244.0500030517578L274.1999969482422 226.1000015258789" stroke="#323232" stroke-width="1.5" fill="none" marker-end="url(#SvgjsMarker1214)"></path></g><g id="SvgjsG1216"><path id="SvgjsPath1217" d="M531.3198569663011 226.07837210338093L589.4484783002221 349.3578689727505" stroke="#323232" stroke-width="1.5" fill="none" marker-end="url(#SvgjsMarker1218)"></path></g><g id="SvgjsG1220"><path id="SvgjsPath1221" d="M530.6545085696492 226.06568984880252L466.64373557992667 349.4035250892328" stroke="#323232" stroke-width="1.5" fill="none" marker-end="url(#SvgjsMarker1222)"></path></g><g id="SvgjsG1224"><path id="SvgjsPath1225" d="M530.3747473394571 225.81420998912463L342.450879060376 350.3088525840732" stroke="#323232" stroke-width="1.5" fill="none" marker-end="url(#SvgjsMarker1226)"></path></g><g id="SvgjsG1228"><path id="SvgjsPath1229" d="M530.30363485592 225.67854454184067L217.50688705286768 350.7972481942955" stroke="#323232" stroke-width="1.5" fill="none" marker-end="url(#SvgjsMarker1230)"></path></g><g id="SvgjsG1232"><path id="SvgjsPath1233" d="M530.9999923706055 79.75L530.9999923706055 168.70000152587892" stroke="#323232" stroke-width="1.5" fill="none" marker-end="url(#SvgjsMarker1234)"></path></g><g id="SvgjsG1236" transform="translate(202.1999969482422,99.20000076293945)"><path id="SvgjsPath1237" d="M 0 0L 144 0L 144 54L 0 54Z" stroke="rgba(33,41,48,1)" stroke-width="1.5" fill-opacity="1" fill="#b7eaeb"></path><g id="SvgjsG1238"><text id="SvgjsText1239" font-family="微软雅黑" text-anchor="middle" font-size="13px" width="124px" fill="#323232" font-weight="400" align="middle" lineHeight="125%" anchor="middle" family="微软雅黑" size="13px" weight="400" font-style="" opacity="1" y="16.375" transform="rotate(0)"><tspan id="SvgjsTspan1240" dy="16" x="72"><tspan id="SvgjsTspan1241" style="text-decoration:;">PackageInterface</tspan></tspan></text></g></g><g id="SvgjsG1242"><path id="SvgjsPath1243" d="M274.1999969482422 172.6500015258789L274.1999969482422 155.90000076293944" stroke="#323232" stroke-width="1.5" fill="none" marker-end="url(#SvgjsMarker1244)"></path></g><g id="SvgjsG1246"><path id="SvgjsPath1247" d="M274.1999969482422 98.45000076293945L274.1999969482422 81.7" stroke="#323232" stroke-width="1.5" fill="none" marker-end="url(#SvgjsMarker1248)"></path></g><g id="SvgjsG1250" transform="translate(25,32)"><path id="SvgjsPath1251" d="M 0 0L 100 0L 100 40L 0 40Z" stroke="none" fill="none"></path><g id="SvgjsG1252"><text id="SvgjsText1253" font-family="微软雅黑" text-anchor="middle" font-size="13px" width="100px" fill="#323232" font-weight="400" align="middle" lineHeight="125%" anchor="middle" family="微软雅黑" size="13px" weight="400" font-style="" opacity="1" y="9.375" transform="rotate(0)"><tspan id="SvgjsTspan1254" dy="16" x="50"><tspan id="SvgjsTspan1255" style="text-decoration:;">顶层服务</tspan></tspan></text></g></g><g id="SvgjsG1256" transform="translate(25,178.4000015258789)"><path id="SvgjsPath1257" d="M 0 0L 100 0L 100 40L 0 40Z" stroke="none" fill="none"></path><g id="SvgjsG1258"><text id="SvgjsText1259" font-family="微软雅黑" text-anchor="middle" font-size="13px" width="100px" fill="#323232" font-weight="400" align="middle" lineHeight="125%" anchor="middle" family="微软雅黑" size="13px" weight="400" font-style="" opacity="1" y="9.375" transform="rotate(0)"><tspan id="SvgjsTspan1260" dy="16" x="50"><tspan id="SvgjsTspan1261" style="text-decoration:;">管理接口</tspan></tspan></text></g></g><g id="SvgjsG1262" transform="translate(25,358.8000030517578)"><path id="SvgjsPath1263" d="M 0 0L 100 0L 100 40L 0 40Z" stroke="none" fill="none"></path><g id="SvgjsG1264"><text id="SvgjsText1265" font-family="微软雅黑" text-anchor="middle" font-size="13px" width="100px" fill="#323232" font-weight="400" align="middle" lineHeight="125%" anchor="middle" family="微软雅黑" size="13px" weight="400" font-style="" opacity="1" y="9.375" transform="rotate(0)"><tspan id="SvgjsTspan1266" dy="16" x="50"><tspan id="SvgjsTspan1267" style="text-decoration:;">端口实现</tspan></tspan></text></g></g></svg>