<svg id="SvgjsSvg1006" width="721.0000305175781" height="606.0000228881836" xmlns="http://www.w3.org/2000/svg" version="1.1" xmlns:xlink="http://www.w3.org/1999/xlink" xmlns:svgjs="http://svgjs.com/svgjs"><defs id="SvgjsDefs1007"><pattern patternUnits="userSpaceOnUse" id="pattern_mark_0" width="300" height="300"><text x="150" y="100" fill="rgba(229,229,229,0.8)" font-size="18" transform="rotate(-45, 150, 150)" style="dominant-baseline: middle; text-anchor: middle;"></text></pattern><pattern patternUnits="userSpaceOnUse" id="pattern_mark_1" width="300" height="300"><text x="150" y="200" fill="rgba(229,229,229,0.8)" font-size="18" transform="rotate(-45, 150, 150)" style="dominant-baseline: middle; text-anchor: middle;"></text></pattern><marker id="SvgjsMarker1093" markerWidth="13" markerHeight="9" refX="9.5" refY="4.5" viewBox="0 0 13 9" orient="auto" markerUnits="userSpaceOnUse" stroke-dasharray="0,0"><path id="SvgjsPath1094" d="M0,0 L13,4.5 L0,9 L0,0" fill="#323232" stroke="#323232" stroke-width="1"></path></marker><marker id="SvgjsMarker1097" markerWidth="13" markerHeight="9" refX="9.5" refY="4.5" viewBox="0 0 13 9" orient="auto" markerUnits="userSpaceOnUse" stroke-dasharray="0,0"><path id="SvgjsPath1098" d="M0,0 L13,4.5 L0,9 L0,0" fill="#323232" stroke="#323232" stroke-width="1"></path></marker><marker id="SvgjsMarker1101" markerWidth="13" markerHeight="9" refX="9.5" refY="4.5" viewBox="0 0 13 9" orient="auto" markerUnits="userSpaceOnUse" stroke-dasharray="0,0"><path id="SvgjsPath1102" d="M0,0 L13,4.5 L0,9 L0,0" fill="#323232" stroke="#323232" stroke-width="1"></path></marker><marker id="SvgjsMarker1129" markerWidth="13" markerHeight="9" refX="9.5" refY="4.5" viewBox="0 0 13 9" orient="auto" markerUnits="userSpaceOnUse" stroke-dasharray="0,0"><path id="SvgjsPath1130" d="M0,0 L13,4.5 L0,9 L0,0" fill="#323232" stroke="#323232" stroke-width="1"></path></marker><marker id="SvgjsMarker1145" markerWidth="13" markerHeight="9" refX="9.5" refY="4.5" viewBox="0 0 13 9" orient="auto" markerUnits="userSpaceOnUse" stroke-dasharray="0,0"><path id="SvgjsPath1146" d="M0,0 L13,4.5 L0,9 L0,0" fill="#323232" stroke="#323232" stroke-width="1"></path></marker><marker id="SvgjsMarker1161" markerWidth="13" markerHeight="9" refX="9.5" refY="4.5" viewBox="0 0 13 9" orient="auto" markerUnits="userSpaceOnUse" stroke-dasharray="0,0"><path id="SvgjsPath1162" d="M0,0 L13,4.5 L0,9 L0,0" fill="#323232" stroke="#323232" stroke-width="1"></path></marker><marker id="SvgjsMarker1165" markerWidth="13" markerHeight="9" refX="9.5" refY="4.5" viewBox="0 0 13 9" orient="auto" markerUnits="userSpaceOnUse" stroke-dasharray="0,0"><path id="SvgjsPath1166" d="M0,0 L13,4.5 L0,9 L0,0" fill="#323232" stroke="#323232" stroke-width="1"></path></marker><marker id="SvgjsMarker1169" markerWidth="13" markerHeight="9" refX="9.5" refY="4.5" viewBox="0 0 13 9" orient="auto" markerUnits="userSpaceOnUse" stroke-dasharray="0,0"><path id="SvgjsPath1170" d="M0,0 L13,4.5 L0,9 L0,0" fill="#323232" stroke="#323232" stroke-width="1"></path></marker><marker id="SvgjsMarker1173" markerWidth="13" markerHeight="9" refX="9.5" refY="4.5" viewBox="0 0 13 9" orient="auto" markerUnits="userSpaceOnUse" stroke-dasharray="0,0"><path id="SvgjsPath1174" d="M0,0 L13,4.5 L0,9 L0,0" fill="#323232" stroke="#323232" stroke-width="1"></path></marker><marker id="SvgjsMarker1177" markerWidth="13" markerHeight="9" refX="9.5" refY="4.5" viewBox="0 0 13 9" orient="auto" markerUnits="userSpaceOnUse" stroke-dasharray="0,0"><path id="SvgjsPath1178" d="M0,0 L13,4.5 L0,9 L0,0" fill="#323232" stroke="#323232" stroke-width="1"></path></marker><marker id="SvgjsMarker1181" markerWidth="13" markerHeight="9" refX="9.5" refY="4.5" viewBox="0 0 13 9" orient="auto" markerUnits="userSpaceOnUse" stroke-dasharray="0,0"><path id="SvgjsPath1182" d="M0,0 L13,4.5 L0,9 L0,0" fill="#323232" stroke="#323232" stroke-width="1"></path></marker><marker id="SvgjsMarker1185" markerWidth="13" markerHeight="9" refX="9.5" refY="4.5" viewBox="0 0 13 9" orient="auto" markerUnits="userSpaceOnUse" stroke-dasharray="0,0"><path id="SvgjsPath1186" d="M0,0 L13,4.5 L0,9 L0,0" fill="#323232" stroke="#323232" stroke-width="1"></path></marker><marker id="SvgjsMarker1189" markerWidth="13" markerHeight="9" refX="9.5" refY="4.5" viewBox="0 0 13 9" orient="auto" markerUnits="userSpaceOnUse" stroke-dasharray="0,0"><path id="SvgjsPath1190" d="M0,0 L13,4.5 L0,9 L0,0" fill="#323232" stroke="#323232" stroke-width="1"></path></marker><marker id="SvgjsMarker1193" markerWidth="13" markerHeight="9" refX="9.5" refY="4.5" viewBox="0 0 13 9" orient="auto" markerUnits="userSpaceOnUse" stroke-dasharray="0,0"><path id="SvgjsPath1194" d="M0,0 L13,4.5 L0,9 L0,0" fill="#323232" stroke="#323232" stroke-width="1"></path></marker><marker id="SvgjsMarker1197" markerWidth="13" markerHeight="9" refX="9.5" refY="4.5" viewBox="0 0 13 9" orient="auto" markerUnits="userSpaceOnUse" stroke-dasharray="0,0"><path id="SvgjsPath1198" d="M0,0 L13,4.5 L0,9 L0,0" fill="#323232" stroke="#323232" stroke-width="1"></path></marker></defs><rect id="svgbackgroundid" width="721.0000305175781" height="606.0000228881836" fill="transparent"></rect><rect id="SvgjsRect1009" width="721.0000305175781" height="606.0000228881836" fill="url(#pattern_mark_0)"></rect><rect id="SvgjsRect1010" width="721.0000305175781" height="606.0000228881836" fill="url(#pattern_mark_1)"></rect><g id="SvgjsG1011" transform="translate(25,205.79999542236328)"><path id="SvgjsPath1012" d="M 0 4Q 0 0 4 0L 420 0Q 424 0 424 4L 424 151.6000099182129Q 424 155.6000099182129 420 155.6000099182129L 4 155.6000099182129Q 0 155.6000099182129 0 151.6000099182129Z" stroke="rgba(33,41,48,1)" stroke-width="1.5" fill-opacity="1" fill="#e5f6da"></path><g id="SvgjsG1013"><text id="SvgjsText1014" font-family="微软雅黑" text-anchor="middle" font-size="13px" width="404px" fill="#323232" font-weight="400" align="middle" lineHeight="125%" anchor="middle" family="微软雅黑" size="13px" weight="400" font-style="" opacity="1" y="120.175004959106445" transform="rotate(0)"><tspan id="SvgjsTspan1015" dy="16" x="212"><tspan id="SvgjsTspan1016" style="text-decoration:;"> </tspan></tspan><tspan id="SvgjsTspan1017" dy="16" x="212"><tspan id="SvgjsTspan1018" style="text-decoration:;"> </tspan></tspan><tspan id="SvgjsTspan1019" dy="16" x="212"><tspan id="SvgjsTspan1020" style="text-decoration:;"> </tspan></tspan><tspan id="SvgjsTspan1021" dy="16" x="212"><tspan id="SvgjsTspan1022" style="text-decoration:;"> </tspan></tspan><tspan id="SvgjsTspan1023" dy="16" x="212"><tspan id="SvgjsTspan1024" style="text-decoration:;"> </tspan></tspan><tspan id="SvgjsTspan1025" dy="16" x="212"><tspan id="SvgjsTspan1226" style="text-decoration:;">package manager</tspan></tspan></text></g></g><g id="SvgjsG1027" transform="translate(25,24.999996185302734)"><path id="SvgjsPath1028" d="M 0 4Q 0 0 4 0L 420 0Q 424 0 424 4L 424 164Q 424 168 420 168L 4 168Q 0 168 0 164Z" stroke="rgba(33,41,48,1)" stroke-width="1.5" fill-opacity="1" fill="#f6edc1"></path><g id="SvgjsG1029"><text id="SvgjsText1030" font-family="微软雅黑" text-anchor="middle" font-size="13px" width="404px" fill="#323232" font-weight="400" align="middle" lineHeight="125%" anchor="middle" family="微软雅黑" size="13px" weight="400" font-style="" opacity="1" y="24.375" transform="rotate(0)"><tspan id="SvgjsTspan1031" dy="16" x="212"><tspan id="SvgjsTspan1032" style="text-decoration:;">port manager</tspan></tspan><tspan id="SvgjsTspan1033" dy="16" x="212"><tspan id="SvgjsTspan1034" style="text-decoration:;"> </tspan></tspan><tspan id="SvgjsTspan1035" dy="16" x="212"><tspan id="SvgjsTspan1036" style="text-decoration:;"> </tspan></tspan><tspan id="SvgjsTspan1037" dy="16" x="212"><tspan id="SvgjsTspan1038" style="text-decoration:;"> </tspan></tspan><tspan id="SvgjsTspan1039" dy="16" x="212"><tspan id="SvgjsTspan1040" style="text-decoration:;"> </tspan></tspan><tspan id="SvgjsTspan1041" dy="16" x="212"><tspan id="SvgjsTspan1042" style="text-decoration:;"> </tspan></tspan><tspan id="SvgjsTspan1043" dy="16" x="212"><tspan id="SvgjsTspan1044" style="text-decoration:;"> </tspan></tspan></text></g></g><g id="SvgjsG1045" transform="translate(41.600006103515625,116.59999465942383)"><path id="SvgjsPath1046" d="M 0 4Q 0 0 4 0L 92 0Q 96 0 96 4L 96 50Q 96 54 92 54L 4 54Q 0 54 0 50Z" stroke="rgba(33,41,48,1)" stroke-width="1.5" fill-opacity="1" fill="#e7ebed"></path><g id="SvgjsG1047"><text id="SvgjsText1048" font-family="微软雅黑" text-anchor="middle" font-size="13px" width="76px" fill="#323232" font-weight="400" align="middle" lineHeight="125%" anchor="middle" family="微软雅黑" size="13px" weight="400" font-style="" opacity="1" y="16.375" transform="rotate(0)"><tspan id="SvgjsTspan1049" dy="16" x="48"><tspan id="SvgjsTspan1050" style="text-decoration:;">can port</tspan></tspan></text></g></g><g id="SvgjsG1051" transform="translate(179,116.59999465942383)"><path id="SvgjsPath1052" d="M 0 4Q 0 0 4 0L 92 0Q 96 0 96 4L 96 50Q 96 54 92 54L 4 54Q 0 54 0 50Z" stroke="rgba(33,41,48,1)" stroke-width="1.5" fill-opacity="1" fill="#e7ebed"></path><g id="SvgjsG1053"><text id="SvgjsText1054" font-family="微软雅黑" text-anchor="middle" font-size="13px" width="76px" fill="#323232" font-weight="400" align="middle" lineHeight="125%" anchor="middle" family="微软雅黑" size="13px" weight="400" font-style="" opacity="1" y="16.375" transform="rotate(0)"><tspan id="SvgjsTspan1055" dy="16" x="48"><tspan id="SvgjsTspan1056" style="text-decoration:;">serial port</tspan></tspan></text></g></g><g id="SvgjsG1057" transform="translate(316.3999938964844,116.59999465942383)"><path id="SvgjsPath1058" d="M 0 4Q 0 0 4 0L 92 0Q 96 0 96 4L 96 50Q 96 54 92 54L 4 54Q 0 54 0 50Z" stroke="rgba(33,41,48,1)" stroke-width="1.5" fill-opacity="1" fill="#e7ebed"></path><g id="SvgjsG1059"><text id="SvgjsText1060" font-family="微软雅黑" text-anchor="middle" font-size="13px" width="76px" fill="#323232" font-weight="400" align="middle" lineHeight="125%" anchor="middle" family="微软雅黑" size="13px" weight="400" font-style="" opacity="1" y="16.375" transform="rotate(0)"><tspan id="SvgjsTspan1061" dy="16" x="48"><tspan id="SvgjsTspan1062" style="text-decoration:;">... port</tspan></tspan></text></g></g><g id="SvgjsG1063" transform="translate(41.600006103515625,219.99999618530273)"><path id="SvgjsPath1064" d="M 0 4Q 0 0 4 0L 92 0Q 96 0 96 4L 96 50Q 96 54 92 54L 4 54Q 0 54 0 50Z" stroke="rgba(33,41,48,1)" stroke-width="1.5" fill-opacity="1" fill="#d2d6f9"></path><g id="SvgjsG1065"><text id="SvgjsText1066" font-family="微软雅黑" text-anchor="middle" font-size="13px" width="76px" fill="#323232" font-weight="400" align="middle" lineHeight="125%" anchor="middle" family="微软雅黑" size="13px" weight="400" font-style="" opacity="1" y="16.375" transform="rotate(0)"><tspan id="SvgjsTspan1067" dy="16" x="48"><tspan id="SvgjsTspan1068" style="text-decoration:;">Buffer1</tspan></tspan></text></g></g><g id="SvgjsG1069" transform="translate(179,219.99999618530273)"><path id="SvgjsPath1070" d="M 0 4Q 0 0 4 0L 92 0Q 96 0 96 4L 96 50Q 96 54 92 54L 4 54Q 0 54 0 50Z" stroke="rgba(33,41,48,1)" stroke-width="1.5" fill-opacity="1" fill="#d2d6f9"></path><g id="SvgjsG1071"><text id="SvgjsText1072" font-family="微软雅黑" text-anchor="middle" font-size="13px" width="76px" fill="#323232" font-weight="400" align="middle" lineHeight="125%" anchor="middle" family="微软雅黑" size="13px" weight="400" font-style="" opacity="1" y="16.375" transform="rotate(0)"><tspan id="SvgjsTspan1073" dy="16" x="48"><tspan id="SvgjsTspan1074" style="text-decoration:;">Buffer2</tspan></tspan></text></g></g><g id="SvgjsG1075" transform="translate(316.3999938964844,219.99999618530273)"><path id="SvgjsPath1076" d="M 0 4Q 0 0 4 0L 92 0Q 96 0 96 4L 96 50Q 96 54 92 54L 4 54Q 0 54 0 50Z" stroke="rgba(33,41,48,1)" stroke-width="1.5" fill-opacity="1" fill="#d2d6f9"></path><g id="SvgjsG1077"><text id="SvgjsText1078" font-family="微软雅黑" text-anchor="middle" font-size="13px" width="76px" fill="#323232" font-weight="400" align="middle" lineHeight="125%" anchor="middle" family="微软雅黑" size="13px" weight="400" font-style="" opacity="1" y="16.375" transform="rotate(0)"><tspan id="SvgjsTspan1079" dy="16" x="48"><tspan id="SvgjsTspan1080" style="text-decoration:;">Buffer3</tspan></tspan></text></g></g><g id="SvgjsG1081" transform="translate(525,24.999996185302734)"><path id="SvgjsPath1082" d="M 0 4Q 0 0 4 0L 167 0Q 171 0 171 4L 171 164Q 171 168 167 168L 4 168Q 0 168 0 164Z" stroke="rgba(33,41,48,1)" stroke-width="1.5" fill-opacity="1" fill="#7985ec"></path><g id="SvgjsG1083"><text id="SvgjsText1084" font-family="微软雅黑" text-anchor="middle" font-size="13px" width="151px" fill="#323232" font-weight="400" align="middle" lineHeight="125%" anchor="middle" family="微软雅黑" size="13px" weight="400" font-style="" opacity="1" y="73.375" transform="rotate(0)"><tspan id="SvgjsTspan1085" dy="16" x="85.5"><tspan id="SvgjsTspan1086" style="text-decoration:;">port scheduler</tspan></tspan></text></g></g><g id="SvgjsG1087" transform="translate(449,83.79999542236328)"><path id="SvgjsPath1088" d="M 0 30L 30 0L 30 19.8L 75 19.8L 75 40.2L 30 40.2L 30 60L 0 30Z" stroke="rgba(33,41,48,1)" stroke-width="1.5" fill-opacity="1" fill="#ffffff"></path><g id="SvgjsG1089"><text id="SvgjsText1090" font-family="微软雅黑" text-anchor="middle" font-size="13px" width="75px" fill="#323232" font-weight="400" align="middle" lineHeight="125%" anchor="middle" family="微软雅黑" size="13px" weight="400" font-style="" opacity="1" y="19.375" transform="rotate(0)"></text></g></g><g id="SvgjsG1091"><path id="SvgjsPath1092" d="M89.60000610351562 219.24999618530273L89.60000610351562 195.29999542236328L89.60000610351562 195.29999542236328L89.60000610351562 173.29999465942382" stroke="#323232" stroke-width="1.5" fill="none" marker-end="url(#SvgjsMarker1093)"></path></g><g id="SvgjsG1095"><path id="SvgjsPath1096" d="M226.29422973780368 219.74624761486479L92.14077904742243 171.51348951300054" stroke="#323232" stroke-width="1.5" fill="none" marker-end="url(#SvgjsMarker1097)"></path></g><g id="SvgjsG1099"><path id="SvgjsPath1100" d="M363.69422363428805 219.74624761486479L229.5407729439068 171.51348951300054" stroke="#323232" stroke-width="1.5" fill="none" marker-end="url(#SvgjsMarker1101)"></path></g><g id="SvgjsG1103" transform="translate(41.600006103515625,300.99999618530273)"><path id="SvgjsPath1104" d="M 0 0L 96 0L 96 54L 0 54Z" stroke="rgba(33,41,48,1)" stroke-width="1.5" fill-opacity="1" fill="#f1e4a2"></path><g id="SvgjsG1105"><text id="SvgjsText1106" font-family="微软雅黑" text-anchor="middle" font-size="13px" width="76px" fill="#323232" font-weight="400" align="middle" lineHeight="125%" anchor="middle" family="微软雅黑" size="13px" weight="400" font-style="" opacity="1" y="16.375" transform="rotate(0)"><tspan id="SvgjsTspan1107" dy="16" x="48"><tspan id="SvgjsTspan1108" style="text-decoration:;">send</tspan></tspan></text></g></g><g id="SvgjsG1109" transform="translate(316.3999938964844,300.99999618530273)"><path id="SvgjsPath1110" d="M 0 0L 96 0L 96 54L 0 54Z" stroke="rgba(33,41,48,1)" stroke-width="1.5" fill-opacity="1" fill="#f1e4a2"></path><g id="SvgjsG1111"><text id="SvgjsText1112" font-family="微软雅黑" text-anchor="middle" font-size="13px" width="76px" fill="#323232" font-weight="400" align="middle" lineHeight="125%" anchor="middle" family="微软雅黑" size="13px" weight="400" font-style="" opacity="1" y="16.375" transform="rotate(0)"><tspan id="SvgjsTspan1113" dy="16" x="48"><tspan id="SvgjsTspan1114" style="text-decoration:;">recv</tspan></tspan></text></g></g><g id="SvgjsG1115" transform="translate(179,386.99999618530273)"><path id="SvgjsPath1116" d="M 0 4Q 0 0 4 0L 92 0Q 96 0 96 4L 96 50Q 96 54 92 54L 4 54Q 0 54 0 50Z" stroke="rgba(33,41,48,1)" stroke-width="1.5" fill-opacity="1" fill="#f4c18f"></path><g id="SvgjsG1117"><text id="SvgjsText1118" font-family="微软雅黑" text-anchor="middle" font-size="13px" width="76px" fill="#323232" font-weight="400" align="middle" lineHeight="125%" anchor="middle" family="微软雅黑" size="13px" weight="400" font-style="" opacity="1" y="16.375" transform="rotate(0)"><tspan id="SvgjsTspan1119" dy="16" x="48"><tspan id="SvgjsTspan1120" style="text-decoration:;">Package</tspan></tspan></text></g></g><g id="SvgjsG1121" transform="translate(41.600006103515625,386.99999618530273)"><path id="SvgjsPath1122" d="M 0 0L 96 0L 96 54L 0 54Z" stroke="rgba(33,41,48,1)" stroke-width="1.5" fill-opacity="1" fill="#f1e4a2"></path><g id="SvgjsG1123"><text id="SvgjsText1124" font-family="微软雅黑" text-anchor="middle" font-size="13px" width="76px" fill="#323232" font-weight="400" align="middle" lineHeight="125%" anchor="middle" family="微软雅黑" size="13px" weight="400" font-style="" opacity="1" y="16.375" transform="rotate(0)"><tspan id="SvgjsTspan1125" dy="16" x="48"><tspan id="SvgjsTspan1126" style="text-decoration:;">encode</tspan></tspan></text></g></g><g id="SvgjsG1127"><path id="SvgjsPath1128" d="M178.25 413.99999618530273L140.3000061035156 413.99999618530273" stroke="#323232" stroke-width="1.5" fill="none" marker-end="url(#SvgjsMarker1129)"></path></g><g id="SvgjsG1131" transform="translate(25,472.99999618530273)"><path id="SvgjsPath1132" d="M 0 4Q 0 0 4 0L 420 0Q 424 0 424 4L 424 104.11251831054688Q 424 108.11251831054688 420 108.11251831054688L 4 108.11251831054688Q 0 108.11251831054688 0 104.11251831054688Z" stroke="rgba(33,41,48,1)" stroke-width="1.5" fill-opacity="1" fill="#a6aef3"></path><g id="SvgjsG1133"><text id="SvgjsText1134" font-family="微软雅黑" text-anchor="middle" font-size="13px" width="404px" fill="#323232" font-weight="400" align="middle" lineHeight="125%" anchor="middle" family="微软雅黑" size="13px" weight="400" font-style="" opacity="1" y="43.43125915527344" transform="rotate(0)"><tspan id="SvgjsTspan1135" dy="16" x="212"><tspan id="SvgjsTspan1136" style="text-decoration:;">external interface</tspan></tspan></text></g></g><g id="SvgjsG1137" transform="translate(316.3999938964844,386.99999618530273)"><path id="SvgjsPath1138" d="M 0 0L 96 0L 96 54L 0 54Z" stroke="rgba(33,41,48,1)" stroke-width="1.5" fill-opacity="1" fill="#f1e4a2"></path><g id="SvgjsG1139"><text id="SvgjsText1140" font-family="微软雅黑" text-anchor="middle" font-size="13px" width="76px" fill="#323232" font-weight="400" align="middle" lineHeight="125%" anchor="middle" family="微软雅黑" size="13px" weight="400" font-style="" opacity="1" y="16.375" transform="rotate(0)"><tspan id="SvgjsTspan1141" dy="16" x="48"><tspan id="SvgjsTspan1142" style="text-decoration:;">decode</tspan></tspan></text></g></g><g id="SvgjsG1143"><path id="SvgjsPath1144" d="M275.75 413.99999618530273L313.69999389648433 413.99999618530273" stroke="#323232" stroke-width="1.5" fill="none" marker-end="url(#SvgjsMarker1145)"></path></g><g id="SvgjsG1147" transform="translate(41.600006103515625,497.00000381469727)"><path id="SvgjsPath1148" d="M 0 0L 96 0L 96 54L 0 54Z" stroke="rgba(33,41,48,1)" stroke-width="1.5" fill-opacity="1" fill="#dbf5f5"></path><g id="SvgjsG1149"><text id="SvgjsText1150" font-family="微软雅黑" text-anchor="middle" font-size="13px" width="76px" fill="#323232" font-weight="400" align="middle" lineHeight="125%" anchor="middle" family="微软雅黑" size="13px" weight="400" font-style="" opacity="1" y="16.375" transform="rotate(0)"><tspan id="SvgjsTspan1151" dy="16" x="48"><tspan id="SvgjsTspan1152" style="text-decoration:;">interface1</tspan></tspan></text></g></g><g id="SvgjsG1153" transform="translate(316.3999938964844,497.00000381469727)"><path id="SvgjsPath1154" d="M 0 0L 96 0L 96 54L 0 54Z" stroke="rgba(33,41,48,1)" stroke-width="1.5" fill-opacity="1" fill="#dbf5f5"></path><g id="SvgjsG1155"><text id="SvgjsText1156" font-family="微软雅黑" text-anchor="middle" font-size="13px" width="76px" fill="#323232" font-weight="400" align="middle" lineHeight="125%" anchor="middle" family="微软雅黑" size="13px" weight="400" font-style="" opacity="1" y="16.375" transform="rotate(0)"><tspan id="SvgjsTspan1157" dy="16" x="48"><tspan id="SvgjsTspan1158" style="text-decoration:;">interface2</tspan></tspan></text></g></g><g id="SvgjsG1159"><path id="SvgjsPath1160" d="M364.3999938964844 300.24999618530273L364.3999938964844 276.6999961853027" stroke="#323232" stroke-width="1.5" fill="none" marker-end="url(#SvgjsMarker1161)"></path></g><g id="SvgjsG1163"><path id="SvgjsPath1164" d="M363.66406813797414 300.8553819468571L229.64933273063667 274.52060744370704" stroke="#323232" stroke-width="1.5" fill="none" marker-end="url(#SvgjsMarker1165)"></path></g><g id="SvgjsG1167"><path id="SvgjsPath1168" d="M90.3359318620258 300.8553819468571L224.35066726936333 274.52060744370704" stroke="#323232" stroke-width="1.5" fill="none" marker-end="url(#SvgjsMarker1169)"></path></g><g id="SvgjsG1171"><path id="SvgjsPath1172" d="M89.60000610351562 300.24999618530273L89.60000610351562 276.6999961853027" stroke="#323232" stroke-width="1.5" fill="none" marker-end="url(#SvgjsMarker1173)"></path></g><g id="SvgjsG1175"><path id="SvgjsPath1176" d="M90.34641196515258 300.92665936157846L361.7129327945912 274.26400875071005" stroke="#323232" stroke-width="1.5" fill="none" marker-end="url(#SvgjsMarker1177)"></path></g><g id="SvgjsG1179"><path id="SvgjsPath1180" d="M363.6535880348474 300.92665936157846L92.28706720540873 274.26400875071005" stroke="#323232" stroke-width="1.5" fill="none" marker-end="url(#SvgjsMarker1181)"></path></g><g id="SvgjsG1183"><path id="SvgjsPath1184" d="M364.3999938964844 386.99999618530273L364.3999938964844 357.6999961853027" stroke="#323232" stroke-width="1.5" fill="none" marker-end="url(#SvgjsMarker1185)"></path></g><g id="SvgjsG1187"><path id="SvgjsPath1188" d="M364.3999938964844 496.25000381469727L364.3999938964844 443.6999961853028" stroke="#323232" stroke-width="1.5" fill="none" marker-end="url(#SvgjsMarker1189)"></path></g><g id="SvgjsG1191"><path id="SvgjsPath1192" d="M89.60000610351562 496.25000381469727L89.60000610351562 443.6999961853028" stroke="#323232" stroke-width="1.5" fill="none" marker-end="url(#SvgjsMarker1193)"></path></g><g id="SvgjsG1195"><path id="SvgjsPath1196" d="M89.60000610351562 386.99999618530273L89.60000610351562 357.6999961853027" stroke="#323232" stroke-width="1.5" fill="none" marker-end="url(#SvgjsMarker1197)"></path></g></svg>